<svg width="31" height="31" viewBox="0 0 31 31" fill="none" xmlns="http://www.w3.org/2000/svg">
<g clip-path="url(#clip0_1_368)">
<path d="M8.19703 3.31372H6.311C5.31059 3.31372 4.35115 3.70881 3.64375 4.41207C2.93635 5.11533 2.53894 6.06916 2.53894 7.06372V26.7512C2.53894 27.7458 2.93635 28.6996 3.64375 29.4029C4.35115 30.1061 5.31059 30.5012 6.311 30.5012H25.1713C26.1717 30.5012 27.1311 30.1061 27.8385 29.4029C28.5459 28.6996 28.9434 27.7458 28.9434 26.7512V7.06372C28.9434 6.06916 28.5459 5.11533 27.8385 4.41207C27.1311 3.70881 26.1717 3.31372 25.1713 3.31372H23.2853V5.18872H25.1713C25.6715 5.18872 26.1512 5.38626 26.5049 5.7379C26.8586 6.08953 27.0573 6.56644 27.0573 7.06372V26.7512C27.0573 27.2485 26.8586 27.7254 26.5049 28.077C26.1512 28.4287 25.6715 28.6262 25.1713 28.6262H6.311C5.81079 28.6262 5.33107 28.4287 4.97738 28.077C4.62368 27.7254 4.42497 27.2485 4.42497 26.7512V7.06372C4.42497 6.56644 4.62368 6.08953 4.97738 5.7379C5.33107 5.38626 5.81079 5.18872 6.311 5.18872H8.19703V3.31372Z" fill="#F3F5FC"/>
<path d="M18.5703 2.37622C18.8204 2.37622 19.0602 2.47499 19.2371 2.65081C19.4139 2.82662 19.5133 3.06508 19.5133 3.31372V5.18872C19.5133 5.43736 19.4139 5.67582 19.2371 5.85163C19.0602 6.02745 18.8204 6.12622 18.5703 6.12622H12.9122C12.6621 6.12622 12.4222 6.02745 12.2454 5.85163C12.0685 5.67582 11.9692 5.43736 11.9692 5.18872V3.31372C11.9692 3.06508 12.0685 2.82662 12.2454 2.65081C12.4222 2.47499 12.6621 2.37622 12.9122 2.37622H18.5703ZM12.9122 0.501221C12.1619 0.501221 11.4423 0.797537 10.9117 1.32498C10.3812 1.85243 10.0831 2.5678 10.0831 3.31372V5.18872C10.0831 5.93464 10.3812 6.65001 10.9117 7.17746C11.4423 7.7049 12.1619 8.00122 12.9122 8.00122H18.5703C19.3206 8.00122 20.0402 7.7049 20.5707 7.17746C21.1012 6.65001 21.3993 5.93464 21.3993 5.18872V3.31372C21.3993 2.5678 21.1012 1.85243 20.5707 1.32498C20.0402 0.797537 19.3206 0.501221 18.5703 0.501221L12.9122 0.501221Z" fill="#F3F5FC"/>
</g>
<defs>
<clipPath id="clip0_1_368">
<rect width="30.1765" height="30" fill="white" transform="translate(0.652954 0.501221)"/>
</clipPath>
</defs>
</svg>
