<svg width="23" height="27" viewBox="0 0 23 27" fill="none" xmlns="http://www.w3.org/2000/svg">
<path d="M17.1202 2.14607C16.2464 2.14607 15.4084 2.49317 14.7906 3.11102C14.1727 3.72888 13.8256 4.56686 13.8256 5.44064V12.0298C14.6994 12.0298 15.5374 12.3769 16.1552 12.9947C16.7731 13.6126 17.1202 14.4506 17.1202 15.3244V23.5608C17.1202 24.4346 16.7731 25.2726 16.1552 25.8904C15.5374 26.5083 14.6994 26.8554 13.8256 26.8554H3.94191C3.06814 26.8554 2.23015 26.5083 1.6123 25.8904C0.994445 25.2726 0.647339 24.4346 0.647339 23.5608V15.3244C0.647339 14.4506 0.994445 13.6126 1.6123 12.9947C2.23015 12.3769 3.06814 12.0298 3.94191 12.0298H12.1783V5.44064C12.1783 4.12998 12.699 2.873 13.6258 1.94622C14.5526 1.01944 15.8095 0.498779 17.1202 0.498779C18.4309 0.498779 19.6879 1.01944 20.6146 1.94622C21.5414 2.873 22.0621 4.12998 22.0621 5.44064V12.0298C22.0621 12.2482 21.9753 12.4577 21.8208 12.6122C21.6664 12.7667 21.4569 12.8534 21.2384 12.8534C21.02 12.8534 20.8105 12.7667 20.656 12.6122C20.5016 12.4577 20.4148 12.2482 20.4148 12.0298V5.44064C20.4148 4.56686 20.0677 3.72888 19.4498 3.11102C18.832 2.49317 17.994 2.14607 17.1202 2.14607Z" fill="black"/>
</svg>
