<svg width="18" height="27" viewBox="0 0 18 27" fill="none" xmlns="http://www.w3.org/2000/svg">
<path d="M9.17833 1.64729C10.0521 1.64729 10.8901 1.99439 11.5079 2.61225C12.1258 3.2301 12.4729 4.06809 12.4729 4.94186V11.531H5.88376V4.94186C5.88376 4.06809 6.23086 3.2301 6.84871 2.61225C7.46657 1.99439 8.30455 1.64729 9.17833 1.64729ZM14.1202 11.531V4.94186C14.1202 3.6312 13.5995 2.37422 12.6728 1.44744C11.746 0.520659 10.489 0 9.17833 0C7.86767 0 6.61068 0.520659 5.68391 1.44744C4.75713 2.37422 4.23647 3.6312 4.23647 4.94186V11.531C3.36269 11.531 2.52471 11.8781 1.90685 12.496C1.289 13.1138 0.941895 13.9518 0.941895 14.8256V23.062C0.941895 23.9358 1.289 24.7738 1.90685 25.3916C2.52471 26.0095 3.36269 26.3566 4.23647 26.3566H14.1202C14.994 26.3566 15.832 26.0095 16.4498 25.3916C17.0677 24.7738 17.4148 23.9358 17.4148 23.062V14.8256C17.4148 13.9518 17.0677 13.1138 16.4498 12.496C15.832 11.8781 14.994 11.531 14.1202 11.531Z" fill="#F3F5FC"/>
</svg>
