<svg width="14" height="21" viewBox="0 0 14 21" fill="none" xmlns="http://www.w3.org/2000/svg">
<path fill-rule="evenodd" clip-rule="evenodd" d="M10.0625 13.8958C9.15596 13.8958 8.32293 13.5812 7.66667 13.0551V16.2917C7.66667 18.4088 5.95044 20.125 3.83333 20.125C1.71623 20.125 0 18.4088 0 16.2917C0 15.0086 0.630296 13.8729 1.59816 13.1771C0.630296 12.4813 0 11.3455 0 10.0625C0 8.77948 0.630296 7.64371 1.59816 6.94792C0.630296 6.25212 0 5.11635 0 3.83333C0 1.71624 1.71623 0 3.83333 0H10.0625C12.1796 0 13.8958 1.71624 13.8958 3.83333C13.8958 5.11635 13.2655 6.25212 12.2977 6.94792C13.2655 7.64371 13.8958 8.77948 13.8958 10.0625C13.8958 12.1796 12.1796 13.8958 10.0625 13.8958ZM10.0625 6.22917H7.66667V1.4375H10.0625C11.3857 1.4375 12.4583 2.51015 12.4583 3.83333C12.4583 5.1565 11.3857 6.22917 10.0625 6.22917ZM3.83333 12.4583H6.22917V7.66667H3.83333C2.51016 7.66667 1.4375 8.73933 1.4375 10.0625C1.4375 11.3857 2.51016 12.4583 3.83333 12.4583ZM6.22917 13.8958H3.83333C2.51016 13.8958 1.4375 14.9685 1.4375 16.2917C1.4375 17.6148 2.51016 18.6875 3.83333 18.6875C5.1565 18.6875 6.22917 17.6148 6.22917 16.2917V13.8958ZM6.22917 6.22917H3.83333C2.51016 6.22917 1.4375 5.1565 1.4375 3.83333C1.4375 2.51015 2.51016 1.4375 3.83333 1.4375H6.22917V6.22917ZM10.0625 7.66667C8.73933 7.66667 7.66667 8.73933 7.66667 10.0625C7.66667 11.3857 8.73933 12.4583 10.0625 12.4583C11.3857 12.4583 12.4583 11.3857 12.4583 10.0625C12.4583 8.73933 11.3857 7.66667 10.0625 7.66667Z" fill="black"/>
</svg>
