<svg width="24" height="24" viewBox="0 0 100 100" fill="none" xmlns="http://www.w3.org/2000/svg">
<g clip-path="url(#clip0_1_417)">
<path d="M34.375 0C35.2038 0 35.9987 0.32924 36.5847 0.915291C37.1708 1.50134 37.5 2.2962 37.5 3.125V28.125C37.5 30.6114 36.5123 32.996 34.7541 34.7541C32.996 36.5123 30.6114 37.5 28.125 37.5H3.125C2.2962 37.5 1.50134 37.1708 0.915291 36.5847C0.32924 35.9987 0 35.2038 0 34.375C0 33.5462 0.32924 32.7513 0.915291 32.1653C1.50134 31.5792 2.2962 31.25 3.125 31.25H28.125C28.9538 31.25 29.7487 30.9208 30.3347 30.3347C30.9208 29.7487 31.25 28.9538 31.25 28.125V3.125C31.25 2.2962 31.5792 1.50134 32.1653 0.915291C32.7513 0.32924 33.5462 0 34.375 0ZM65.625 0C66.4538 0 67.2487 0.32924 67.8347 0.915291C68.4208 1.50134 68.75 2.2962 68.75 3.125V28.125C68.75 28.9538 69.0792 29.7487 69.6653 30.3347C70.2513 30.9208 71.0462 31.25 71.875 31.25H96.875C97.7038 31.25 98.4987 31.5792 99.0847 32.1653C99.6708 32.7513 100 33.5462 100 34.375C100 35.2038 99.6708 35.9987 99.0847 36.5847C98.4987 37.1708 97.7038 37.5 96.875 37.5H71.875C69.3886 37.5 67.004 36.5123 65.2459 34.7541C63.4877 32.996 62.5 30.6114 62.5 28.125V3.125C62.5 2.2962 62.8292 1.50134 63.4153 0.915291C64.0013 0.32924 64.7962 0 65.625 0ZM0 65.625C0 64.7962 0.32924 64.0013 0.915291 63.4153C1.50134 62.8292 2.2962 62.5 3.125 62.5H28.125C30.6114 62.5 32.996 63.4877 34.7541 65.2459C36.5123 67.004 37.5 69.3886 37.5 71.875V96.875C37.5 97.7038 37.1708 98.4987 36.5847 99.0847C35.9987 99.6708 35.2038 100 34.375 100C33.5462 100 32.7513 99.6708 32.1653 99.0847C31.5792 98.4987 31.25 97.7038 31.25 96.875V71.875C31.25 71.0462 30.9208 70.2513 30.3347 69.6653C29.7487 69.0792 28.9538 68.75 28.125 68.75H3.125C2.2962 68.75 1.50134 68.4208 0.915291 67.8347C0.32924 67.2487 0 66.4538 0 65.625ZM62.5 71.875C62.5 69.3886 63.4877 67.004 65.2459 65.2459C67.004 63.4877 69.3886 62.5 71.875 62.5H96.875C97.7038 62.5 98.4987 62.8292 99.0847 63.4153C99.6708 64.0013 100 64.7962 100 65.625C100 66.4538 99.6708 67.2487 99.0847 67.8347C98.4987 68.4208 97.7038 68.75 96.875 68.75H71.875C71.0462 68.75 70.2513 69.0792 69.6653 69.6653C69.0792 70.2513 68.75 71.0462 68.75 71.875V96.875C68.75 97.7038 68.4208 98.4987 67.8347 99.0847C67.2487 99.6708 66.4538 100 65.625 100C64.7962 100 64.0013 99.6708 63.4153 99.0847C62.8292 98.4987 62.5 97.7038 62.5 96.875V71.875Z" fill="black"/>
</g>
<defs>
<clipPath id="clip0_1_417">
<rect width="100" height="100" fill="white"/>
</clipPath>
</defs>
</svg>
