<svg width="24" height="24" viewBox="0 0 17 17" fill="none" xmlns="http://www.w3.org/2000/svg">
<path d="M1.5457 1.03053C1.40905 1.03053 1.278 1.08481 1.18137 1.18144C1.08475 1.27806 1.03047 1.40911 1.03047 1.54576V5.66762C1.03047 5.80427 0.976183 5.93532 0.879558 6.03195C0.782933 6.12857 0.651881 6.18286 0.515233 6.18286C0.378585 6.18286 0.247533 6.12857 0.150908 6.03195C0.0542833 5.93532 0 5.80427 0 5.66762V1.54576C0 1.13582 0.16285 0.742661 0.452725 0.452786C0.7426 0.162911 1.13575 6.10352e-05 1.5457 6.10352e-05L5.66756 6.10352e-05C5.80421 6.10352e-05 5.93526 0.0543444 6.03189 0.150969C6.12851 0.247594 6.1828 0.378646 6.1828 0.515294C6.1828 0.651942 6.12851 0.782994 6.03189 0.879619C5.93526 0.976244 5.80421 1.03053 5.66756 1.03053H1.5457ZM10.3047 0.515294C10.3047 0.378646 10.3589 0.247594 10.4556 0.150969C10.5522 0.0543444 10.6832 6.10352e-05 10.8199 6.10352e-05L14.9418 6.10352e-05C15.3517 6.10352e-05 15.7449 0.162911 16.0347 0.452786C16.3246 0.742661 16.4875 1.13582 16.4875 1.54576V5.66762C16.4875 5.80427 16.4332 5.93532 16.3365 6.03195C16.2399 6.12857 16.1089 6.18286 15.9722 6.18286C15.8356 6.18286 15.7045 6.12857 15.6079 6.03195C15.5113 5.93532 15.457 5.80427 15.457 5.66762V1.54576C15.457 1.40911 15.4027 1.27806 15.3061 1.18144C15.2095 1.08481 15.0784 1.03053 14.9418 1.03053H10.8199C10.6832 1.03053 10.5522 0.976244 10.4556 0.879619C10.3589 0.782994 10.3047 0.651942 10.3047 0.515294ZM0.515233 10.3047C0.651881 10.3047 0.782933 10.359 0.879558 10.4556C0.976183 10.5523 1.03047 10.6833 1.03047 10.82V14.9418C1.03047 15.0785 1.08475 15.2095 1.18137 15.3061C1.278 15.4028 1.40905 15.4571 1.5457 15.4571H5.66756C5.80421 15.4571 5.93526 15.5113 6.03189 15.608C6.12851 15.7046 6.1828 15.8356 6.1828 15.9723C6.1828 16.1089 6.12851 16.24 6.03189 16.3366C5.93526 16.4332 5.80421 16.4875 5.66756 16.4875H1.5457C1.13575 16.4875 0.7426 16.3247 0.452725 16.0348C0.16285 15.7449 0 15.3518 0 14.9418L0 10.82C0 10.6833 0.0542833 10.5523 0.150908 10.4556C0.247533 10.359 0.378585 10.3047 0.515233 10.3047ZM15.9722 10.3047C16.1089 10.3047 16.2399 10.359 16.3365 10.4556C16.4332 10.5523 16.4875 10.6833 16.4875 10.82V14.9418C16.4875 15.3518 16.3246 15.7449 16.0347 16.0348C15.7449 16.3247 15.3517 16.4875 14.9418 16.4875H10.8199C10.6832 16.4875 10.5522 16.4332 10.4556 16.3366C10.3589 16.24 10.3047 16.1089 10.3047 15.9723C10.3047 15.8356 10.3589 15.7046 10.4556 15.608C10.5522 15.5113 10.6832 15.4571 10.8199 15.4571H14.9418C15.0784 15.4571 15.2095 15.4028 15.3061 15.3061C15.4027 15.2095 15.457 15.0785 15.457 14.9418V10.82C15.457 10.6833 15.5113 10.5523 15.6079 10.4556C15.7045 10.359 15.8356 10.3047 15.9722 10.3047Z" fill="black"/>
</svg>
