<svg width="25" height="24" viewBox="0 0 25 24" fill="none" xmlns="http://www.w3.org/2000/svg">
<path d="M12.2951 0C5.50205 0 0 5.50205 0 12.2951C0 17.7357 3.51947 22.3309 8.40676 23.96C9.02152 24.0676 9.25205 23.6988 9.25205 23.376C9.25205 23.084 9.23668 22.1158 9.23668 21.0861C6.14754 21.6547 5.34836 20.333 5.10246 19.6414C4.96414 19.2879 4.36475 18.1967 3.84221 17.9047C3.41189 17.6742 2.79713 17.1055 3.82684 17.0902C4.79508 17.0748 5.48668 17.9816 5.71721 18.3504C6.82377 20.21 8.59119 19.6875 9.29816 19.3648C9.40574 18.5656 9.72848 18.0277 10.082 17.7203C7.34631 17.4129 4.48771 16.3525 4.48771 11.6496C4.48771 10.3125 4.96414 9.20594 5.74795 8.34529C5.625 8.03791 5.19467 6.77766 5.8709 5.08709C5.8709 5.08709 6.90061 4.76434 9.25205 6.34734C10.2357 6.0707 11.2807 5.93238 12.3258 5.93238C13.3709 5.93238 14.416 6.0707 15.3996 6.34734C17.751 4.74898 18.7807 5.08709 18.7807 5.08709C19.457 6.77766 19.0266 8.03791 18.9037 8.34529C19.6875 9.20594 20.1639 10.2971 20.1639 11.6496C20.1639 16.3678 17.29 17.4129 14.5543 17.7203C15 18.1045 15.3842 18.8422 15.3842 19.9949C15.3842 21.6393 15.3689 22.9611 15.3689 23.376C15.3689 23.6988 15.5994 24.083 16.2141 23.96C18.6551 23.1363 20.7761 21.5676 22.2787 19.475C23.7813 17.3824 24.5897 14.8713 24.5902 12.2951C24.5902 5.50205 19.0881 0 12.2951 0Z" fill="black"/>
</svg>
