<svg width="25" height="25" viewBox="0 0 25 25" fill="none" xmlns="http://www.w3.org/2000/svg">
<path d="M0 1.76127C0 0.788422 0.808402 0 1.80584 0H22.7843C23.7818 0 24.5902 0.788422 24.5902 1.76127V22.8289C24.5902 23.8017 23.7818 24.5902 22.7843 24.5902H1.80584C0.808402 24.5902 0 23.8017 0 22.8289V1.76127ZM7.59682 20.585V9.48105H3.90676V20.585H7.59682ZM5.75256 7.96414C7.03893 7.96414 7.83965 7.11271 7.83965 6.04611C7.8166 4.95646 7.04047 4.12807 5.77715 4.12807C4.51383 4.12807 3.68852 4.95799 3.68852 6.04611C3.68852 7.11271 4.48924 7.96414 5.72797 7.96414H5.75256ZM13.2956 20.585V14.3837C13.2956 14.0517 13.3202 13.7198 13.4185 13.4831C13.6844 12.8207 14.2915 12.1337 15.312 12.1337C16.6475 12.1337 17.1808 13.1511 17.1808 14.645V20.585H20.8709V14.2162C20.8709 10.8043 19.0512 9.21824 16.623 9.21824C14.665 9.21824 13.7874 10.2941 13.2956 11.0517V11.0902H13.271C13.2792 11.0773 13.2874 11.0645 13.2956 11.0517V9.48105H9.60707C9.65318 10.5231 9.60707 20.585 9.60707 20.585H13.2956Z" fill="black"/>
</svg>
