<svg width="27" height="29" viewBox="0 0 27 29" fill="none" xmlns="http://www.w3.org/2000/svg">
<path d="M10.6462 1.03221C10.814 1.23608 10.9167 1.48559 10.9413 1.74848C10.9658 2.01138 10.9109 2.27558 10.7837 2.50696C9.78997 4.33144 9.27101 6.37653 9.27456 8.45408C9.27456 15.3655 14.9089 20.9619 21.8529 20.9619C22.7587 20.9619 23.6405 20.8674 24.4879 20.6869C24.7476 20.6307 25.0182 20.6522 25.2658 20.7488C25.5134 20.8454 25.7271 21.0128 25.8801 21.2301C26.0417 21.456 26.124 21.729 26.1144 22.0066C26.1047 22.2842 26.0036 22.5508 25.8268 22.765C24.4787 24.421 22.7781 25.7552 20.8488 26.6705C18.9196 27.5857 16.8104 28.0589 14.6751 28.0555C6.75133 28.0555 0.333252 21.6718 0.333252 13.8065C0.333252 7.88687 3.96684 2.80947 9.1405 0.657506C9.39821 0.548587 9.68431 0.526232 9.95582 0.593799C10.2273 0.661365 10.4696 0.815205 10.6462 1.03221ZM8.68329 2.80775C6.69393 3.87485 5.03085 5.461 3.87081 7.39763C2.71077 9.33426 2.09711 11.549 2.09504 13.8065C2.09504 20.7162 7.73106 26.3126 14.6751 26.3126C16.338 26.3155 17.9849 25.9886 19.5205 25.3507C21.0562 24.7128 22.4501 23.7767 23.6216 22.5965C23.0423 22.6687 22.4528 22.7048 21.8529 22.7048C13.9291 22.7048 7.51277 16.3211 7.51277 8.4558C7.51277 6.44994 7.92873 4.54032 8.68329 2.80775Z" fill="black"/>
</svg>
