<svg width="29" height="28" viewBox="0 0 29 28" fill="none" xmlns="http://www.w3.org/2000/svg">
<path d="M14.6109 19.2083C13.2296 19.2083 11.9048 18.6596 10.9281 17.6829C9.95133 16.7061 9.4026 15.3813 9.4026 14C9.4026 12.6187 9.95133 11.2939 10.9281 10.3172C11.9048 9.3404 13.2296 8.79167 14.6109 8.79167C15.9923 8.79167 17.317 9.3404 18.2938 10.3172C19.2705 11.2939 19.8193 12.6187 19.8193 14C19.8193 15.3813 19.2705 16.7061 18.2938 17.6829C17.317 18.6596 15.9923 19.2083 14.6109 19.2083ZM14.6109 20.9444C16.4527 20.9444 18.2191 20.2128 19.5214 18.9105C20.8237 17.6081 21.5554 15.8418 21.5554 14C21.5554 12.1582 20.8237 10.3919 19.5214 9.08954C18.2191 7.7872 16.4527 7.05556 14.6109 7.05556C12.7692 7.05556 11.0028 7.7872 9.70047 9.08954C8.39813 10.3919 7.66649 12.1582 7.66649 14C7.66649 15.8418 8.39813 17.6081 9.70047 18.9105C11.0028 20.2128 12.7692 20.9444 14.6109 20.9444ZM14.6109 0.111115C14.8412 0.111115 15.062 0.20257 15.2247 0.365362C15.3875 0.528154 15.479 0.748947 15.479 0.97917V4.45139C15.479 4.68161 15.3875 4.90241 15.2247 5.0652C15.062 5.22799 14.8412 5.31945 14.6109 5.31945C14.3807 5.31945 14.1599 5.22799 13.9971 5.0652C13.8343 4.90241 13.7429 4.68161 13.7429 4.45139V0.97917C13.7429 0.748947 13.8343 0.528154 13.9971 0.365362C14.1599 0.20257 14.3807 0.111115 14.6109 0.111115ZM14.6109 22.6806C14.8412 22.6806 15.062 22.772 15.2247 22.9348C15.3875 23.0976 15.479 23.3184 15.479 23.5486V27.0208C15.479 27.2511 15.3875 27.4719 15.2247 27.6346C15.062 27.7974 14.8412 27.8889 14.6109 27.8889C14.3807 27.8889 14.1599 27.7974 13.9971 27.6346C13.8343 27.4719 13.7429 27.2511 13.7429 27.0208V23.5486C13.7429 23.3184 13.8343 23.0976 13.9971 22.9348C14.1599 22.772 14.3807 22.6806 14.6109 22.6806ZM28.4998 14C28.4998 14.2302 28.4084 14.451 28.2456 14.6138C28.0828 14.7766 27.862 14.8681 27.6318 14.8681H24.1595C23.9293 14.8681 23.7085 14.7766 23.5457 14.6138C23.3829 14.451 23.2915 14.2302 23.2915 14C23.2915 13.7698 23.3829 13.549 23.5457 13.3862C23.7085 13.2234 23.9293 13.1319 24.1595 13.1319H27.6318C27.862 13.1319 28.0828 13.2234 28.2456 13.3862C28.4084 13.549 28.4998 13.7698 28.4998 14ZM5.93038 14C5.93038 14.2302 5.83892 14.451 5.67613 14.6138C5.51334 14.7766 5.29255 14.8681 5.06232 14.8681H1.5901C1.35988 14.8681 1.13909 14.7766 0.976293 14.6138C0.813501 14.451 0.722046 14.2302 0.722046 14C0.722046 13.7698 0.813501 13.549 0.976293 13.3862C1.13909 13.2234 1.35988 13.1319 1.5901 13.1319H5.06232C5.29255 13.1319 5.51334 13.2234 5.67613 13.3862C5.83892 13.549 5.93038 13.7698 5.93038 14ZM24.4321 4.17882C24.5948 4.34161 24.6863 4.56236 24.6863 4.79254C24.6863 5.02272 24.5948 5.24347 24.4321 5.40625L21.9773 7.86285C21.8965 7.94344 21.8008 8.00735 21.6953 8.05093C21.5899 8.0945 21.477 8.11689 21.3629 8.11681C21.1326 8.11664 20.9117 8.02498 20.749 7.86198C20.6684 7.78127 20.6045 7.68548 20.5609 7.58008C20.5173 7.47467 20.4949 7.36171 20.495 7.24765C20.4952 7.0173 20.5868 6.79645 20.7498 6.63368L23.2047 4.17882C23.3675 4.01609 23.5882 3.92467 23.8184 3.92467C24.0486 3.92467 24.2693 4.01609 24.4321 4.17882ZM8.47205 20.1389C8.63478 20.3017 8.7262 20.5224 8.7262 20.7526C8.7262 20.9828 8.63478 21.2035 8.47205 21.3663L6.01718 23.8212C5.85347 23.9793 5.63419 24.0668 5.40659 24.0648C5.17899 24.0628 4.96127 23.9716 4.80033 23.8106C4.63938 23.6497 4.54809 23.4319 4.54611 23.2043C4.54414 22.9767 4.63163 22.7575 4.78975 22.5938L7.24462 20.1389C7.4074 19.9762 7.62815 19.8847 7.85833 19.8847C8.08851 19.8847 8.30926 19.9762 8.47205 20.1389ZM24.4321 23.8212C24.2693 23.9839 24.0486 24.0753 23.8184 24.0753C23.5882 24.0753 23.3675 23.9839 23.2047 23.8212L20.7498 21.3663C20.5917 21.2026 20.5042 20.9833 20.5062 20.7557C20.5082 20.5281 20.5995 20.3104 20.7604 20.1495C20.9213 19.9885 21.1391 19.8972 21.3667 19.8953C21.5943 19.8933 21.8135 19.9808 21.9773 20.1389L24.4321 22.5938C24.5948 22.7565 24.6863 22.9773 24.6863 23.2075C24.6863 23.4376 24.5948 23.6584 24.4321 23.8212ZM8.47205 7.86285C8.30926 8.02559 8.08851 8.11701 7.85833 8.11701C7.62815 8.11701 7.4074 8.02559 7.24462 7.86285L4.78975 5.40625C4.70685 5.32618 4.64072 5.23039 4.59522 5.12449C4.54973 5.01858 4.52578 4.90467 4.52478 4.78941C4.52378 4.67415 4.54574 4.55985 4.58939 4.45317C4.63303 4.34649 4.69749 4.24957 4.77899 4.16806C4.8605 4.08656 4.95742 4.0221 5.0641 3.97846C5.17078 3.93481 5.28509 3.91285 5.40035 3.91385C5.5156 3.91485 5.62951 3.9388 5.73542 3.98429C5.84132 4.02978 5.93711 4.09591 6.01718 4.17882L8.47205 6.63368C8.55289 6.71432 8.61702 6.81011 8.66078 6.91557C8.70454 7.02103 8.72707 7.13409 8.72707 7.24827C8.72707 7.36245 8.70454 7.4755 8.66078 7.58096C8.61702 7.68642 8.55289 7.78222 8.47205 7.86285Z" fill="black"/>
</svg>
