<svg width="35" height="24" viewBox="0 0 35 24" fill="none" xmlns="http://www.w3.org/2000/svg">
<path d="M17.1923 0H17.3823C19.1376 0.00640626 28.0317 0.0704693 30.4298 0.715366C31.1547 0.912185 31.8153 1.29582 32.3456 1.82794C32.8758 2.36005 33.2571 3.02201 33.4514 3.74766C33.6671 4.55912 33.8187 5.63324 33.9212 6.74153L33.9425 6.96361L33.9895 7.51882L34.0066 7.7409C34.1454 9.69268 34.1625 11.5206 34.1646 11.9199V12.0801C34.1625 12.4944 34.1432 14.4461 33.9895 16.479L33.9724 16.7033L33.9532 16.9254C33.8464 18.1468 33.6884 19.3597 33.4514 20.2523C33.2577 20.9783 32.8766 21.6406 32.3463 22.1728C31.8159 22.705 31.155 23.0884 30.4298 23.2846C27.9527 23.9509 18.5376 23.9979 17.2329 24H16.9296C16.2698 24 13.5407 23.9872 10.6792 23.889L10.3162 23.8761L10.1304 23.8676L9.76528 23.8527L9.40012 23.8377C7.02981 23.7331 4.77267 23.5644 3.73272 23.2825C3.00772 23.0865 2.34697 22.7033 1.81665 22.1715C1.28634 21.6397 0.905092 20.9779 0.711095 20.2523C0.474064 19.3619 0.316042 18.1468 0.209271 16.9254L0.192188 16.7011L0.175105 16.479C0.0697164 15.0321 0.0113174 13.5821 0 12.1313L0 11.8687C0.00427084 11.4096 0.0213542 9.82294 0.136667 8.07189L0.151615 7.85194L0.158021 7.7409L0.175105 7.51882L0.222084 6.96361L0.243438 6.74153C0.345938 5.63324 0.497553 4.55699 0.713231 3.74766C0.9069 3.02172 1.28801 2.35945 1.81834 1.82724C2.34867 1.29503 3.0096 0.911595 3.73485 0.715366C4.7748 0.437762 7.03194 0.266928 9.40226 0.160156L9.76528 0.145209L10.1326 0.132396L10.3162 0.12599L10.6814 0.111042C12.7137 0.045644 14.7468 0.00933791 16.7801 0.00213552H17.1923V0ZM13.6667 6.8547V17.1432L22.5436 12.0011L13.6667 6.8547Z" fill="black"/>
</svg>
